<mxfile host="www.draw.io" modified="2023-07-22T12:57:42.738Z" agent="Mozilla/5.0 (X11; Linux x86_64; rv:109.0) Gecko/20100101 Firefox/114.0" etag="nwWDit7SE_GoGDBfW9oT" version="21.6.5" type="device">
  <diagram name="Pagina-1" id="75HxWDrTKa51w8-I5x6m">
    <mxGraphModel dx="2261" dy="790" grid="1" gridSize="10" guides="1" tooltips="1" connect="1" arrows="1" fold="1" page="1" pageScale="1" pageWidth="827" pageHeight="1169" math="0" shadow="0">
      <root>
        <mxCell id="0" />
        <mxCell id="1" parent="0" />
        <mxCell id="KQ5LcfLCaLboZUM0fUNv-4" value="Exists (User, Password)" style="edgeStyle=orthogonalEdgeStyle;rounded=0;orthogonalLoop=1;jettySize=auto;html=1;exitX=1;exitY=1;exitDx=0;exitDy=0;entryX=0;entryY=1;entryDx=0;entryDy=0;" edge="1" parent="1" source="KQ5LcfLCaLboZUM0fUNv-1" target="KQ5LcfLCaLboZUM0fUNv-3">
          <mxGeometry relative="1" as="geometry" />
        </mxCell>
        <mxCell id="KQ5LcfLCaLboZUM0fUNv-1" value="LoginHandler" style="rounded=0;whiteSpace=wrap;html=1;" vertex="1" parent="1">
          <mxGeometry x="140" y="240" width="120" height="60" as="geometry" />
        </mxCell>
        <mxCell id="KQ5LcfLCaLboZUM0fUNv-2" value="User&lt;br&gt;Pass" style="shape=flexArrow;endArrow=classic;html=1;rounded=0;entryX=0;entryY=0.5;entryDx=0;entryDy=0;exitX=0.733;exitY=-0.1;exitDx=0;exitDy=0;exitPerimeter=0;" edge="1" parent="1" target="KQ5LcfLCaLboZUM0fUNv-1">
          <mxGeometry x="-0.5063" width="50" height="50" relative="1" as="geometry">
            <mxPoint x="-2.1316282072803006e-13" y="480" as="sourcePoint" />
            <mxPoint x="84.76" y="265" as="targetPoint" />
            <Array as="points">
              <mxPoint y="270" />
            </Array>
            <mxPoint as="offset" />
          </mxGeometry>
        </mxCell>
        <mxCell id="KQ5LcfLCaLboZUM0fUNv-6" value="Match (User, Pass)" style="edgeStyle=orthogonalEdgeStyle;rounded=0;orthogonalLoop=1;jettySize=auto;html=1;exitX=1;exitY=0.5;exitDx=0;exitDy=0;entryX=1;entryY=0.5;entryDx=0;entryDy=0;" edge="1" parent="1" source="KQ5LcfLCaLboZUM0fUNv-3" target="KQ5LcfLCaLboZUM0fUNv-5">
          <mxGeometry relative="1" as="geometry">
            <Array as="points">
              <mxPoint x="690" y="270" />
              <mxPoint x="690" y="450" />
            </Array>
          </mxGeometry>
        </mxCell>
        <mxCell id="KQ5LcfLCaLboZUM0fUNv-9" value="Generate session &amp;amp;&amp;amp; await SaveSession" style="edgeStyle=orthogonalEdgeStyle;rounded=0;orthogonalLoop=1;jettySize=auto;html=1;exitX=0;exitY=0.25;exitDx=0;exitDy=0;entryX=1;entryY=0.25;entryDx=0;entryDy=0;fillColor=#d5e8d4;strokeColor=#82b366;" edge="1" parent="1" source="KQ5LcfLCaLboZUM0fUNv-3" target="KQ5LcfLCaLboZUM0fUNv-1">
          <mxGeometry relative="1" as="geometry">
            <Array as="points">
              <mxPoint x="480" y="250" />
              <mxPoint x="260" y="250" />
            </Array>
          </mxGeometry>
        </mxCell>
        <mxCell id="KQ5LcfLCaLboZUM0fUNv-23" value="SaveSession (Session)" style="edgeStyle=orthogonalEdgeStyle;rounded=0;orthogonalLoop=1;jettySize=auto;html=1;entryX=1;entryY=0.5;entryDx=0;entryDy=0;fillColor=#d5e8d4;strokeColor=#82b366;dashed=1;" edge="1" parent="1" target="KQ5LcfLCaLboZUM0fUNv-12">
          <mxGeometry relative="1" as="geometry">
            <mxPoint x="470" y="250" as="sourcePoint" />
            <Array as="points">
              <mxPoint x="440" y="210" />
              <mxPoint x="540" y="210" />
              <mxPoint x="540" y="130" />
            </Array>
          </mxGeometry>
        </mxCell>
        <mxCell id="KQ5LcfLCaLboZUM0fUNv-3" value="Matcher" style="rounded=0;whiteSpace=wrap;html=1;" vertex="1" parent="1">
          <mxGeometry x="480" y="240" width="120" height="60" as="geometry" />
        </mxCell>
        <mxCell id="KQ5LcfLCaLboZUM0fUNv-8" value="Matched (true)" style="edgeStyle=orthogonalEdgeStyle;rounded=0;orthogonalLoop=1;jettySize=auto;html=1;exitX=0;exitY=0.5;exitDx=0;exitDy=0;fillColor=#d5e8d4;strokeColor=#82b366;" edge="1" parent="1" source="KQ5LcfLCaLboZUM0fUNv-5" target="KQ5LcfLCaLboZUM0fUNv-3">
          <mxGeometry relative="1" as="geometry" />
        </mxCell>
        <mxCell id="KQ5LcfLCaLboZUM0fUNv-5" value="DB" style="ellipse;whiteSpace=wrap;html=1;" vertex="1" parent="1">
          <mxGeometry x="520" y="410" width="120" height="80" as="geometry" />
        </mxCell>
        <mxCell id="KQ5LcfLCaLboZUM0fUNv-24" value="IsValid or IsInvalid&amp;nbsp; (true | false)" style="edgeStyle=orthogonalEdgeStyle;rounded=0;orthogonalLoop=1;jettySize=auto;html=1;exitX=0.408;exitY=0.017;exitDx=0;exitDy=0;entryX=0;entryY=0.75;entryDx=0;entryDy=0;fillColor=#ffe6cc;strokeColor=#d79b00;exitPerimeter=0;" edge="1" parent="1" source="KQ5LcfLCaLboZUM0fUNv-31" target="KQ5LcfLCaLboZUM0fUNv-19">
          <mxGeometry relative="1" as="geometry">
            <Array as="points">
              <mxPoint x="190" y="102" />
              <mxPoint x="190" y="40" />
              <mxPoint x="-220" y="40" />
              <mxPoint x="-220" y="590" />
              <mxPoint x="-100" y="590" />
            </Array>
          </mxGeometry>
        </mxCell>
        <mxCell id="KQ5LcfLCaLboZUM0fUNv-33" value="IsValid or IsInvalid" style="edgeStyle=orthogonalEdgeStyle;rounded=0;orthogonalLoop=1;jettySize=auto;html=1;exitX=0;exitY=0;exitDx=0;exitDy=0;entryX=1;entryY=0.25;entryDx=0;entryDy=0;fillColor=#ffe6cc;strokeColor=#d79b00;" edge="1" parent="1" source="KQ5LcfLCaLboZUM0fUNv-12" target="KQ5LcfLCaLboZUM0fUNv-31">
          <mxGeometry relative="1" as="geometry">
            <Array as="points">
              <mxPoint x="422" y="115" />
            </Array>
          </mxGeometry>
        </mxCell>
        <mxCell id="KQ5LcfLCaLboZUM0fUNv-12" value="SessionDB" style="ellipse;whiteSpace=wrap;html=1;rounded=0;" vertex="1" parent="1">
          <mxGeometry x="410" y="90" width="80" height="80" as="geometry" />
        </mxCell>
        <mxCell id="KQ5LcfLCaLboZUM0fUNv-16" value="Session" style="shape=flexArrow;endArrow=classic;html=1;rounded=0;exitX=0;exitY=1;exitDx=0;exitDy=0;entryX=0.679;entryY=-0.007;entryDx=0;entryDy=0;entryPerimeter=0;" edge="1" parent="1" source="KQ5LcfLCaLboZUM0fUNv-1" target="KQ5LcfLCaLboZUM0fUNv-19">
          <mxGeometry width="50" height="50" relative="1" as="geometry">
            <mxPoint x="-20" y="330" as="sourcePoint" />
            <mxPoint x="10" y="300" as="targetPoint" />
            <Array as="points">
              <mxPoint x="140" y="370" />
              <mxPoint x="90" y="370" />
            </Array>
          </mxGeometry>
        </mxCell>
        <mxCell id="KQ5LcfLCaLboZUM0fUNv-17" value="Client" style="shape=cylinder3;whiteSpace=wrap;html=1;boundedLbl=1;backgroundOutline=1;size=15;" vertex="1" parent="1">
          <mxGeometry x="-80" y="820" width="170" height="80" as="geometry" />
        </mxCell>
        <mxCell id="KQ5LcfLCaLboZUM0fUNv-18" value="Session | (User, pass))" style="shape=flexArrow;endArrow=classic;html=1;rounded=0;entryX=0.25;entryY=1;entryDx=0;entryDy=0;exitX=0;exitY=0;exitDx=0;exitDy=15;exitPerimeter=0;" edge="1" parent="1">
          <mxGeometry width="50" height="50" relative="1" as="geometry">
            <mxPoint x="-60" y="825" as="sourcePoint" />
            <mxPoint x="-60" y="630" as="targetPoint" />
          </mxGeometry>
        </mxCell>
        <mxCell id="KQ5LcfLCaLboZUM0fUNv-20" value="IsSessionValid(Session)" style="edgeStyle=orthogonalEdgeStyle;rounded=0;orthogonalLoop=1;jettySize=auto;html=1;exitX=0;exitY=0.5;exitDx=0;exitDy=0;entryX=0;entryY=0.5;entryDx=0;entryDy=0;" edge="1" parent="1" source="KQ5LcfLCaLboZUM0fUNv-19" target="KQ5LcfLCaLboZUM0fUNv-31">
          <mxGeometry relative="1" as="geometry">
            <mxPoint x="-30" y="80" as="targetPoint" />
          </mxGeometry>
        </mxCell>
        <mxCell id="KQ5LcfLCaLboZUM0fUNv-19" value="Rauth" style="rounded=0;whiteSpace=wrap;html=1;" vertex="1" parent="1">
          <mxGeometry x="-100" y="480" width="280" height="150" as="geometry" />
        </mxCell>
        <mxCell id="KQ5LcfLCaLboZUM0fUNv-28" value="DeleteOldSessions" style="edgeStyle=orthogonalEdgeStyle;rounded=0;orthogonalLoop=1;jettySize=auto;html=1;exitX=1;exitY=0.75;exitDx=0;exitDy=0;entryX=0.963;entryY=0.25;entryDx=0;entryDy=0;entryPerimeter=0;dashed=1;" edge="1" parent="1" source="KQ5LcfLCaLboZUM0fUNv-27" target="KQ5LcfLCaLboZUM0fUNv-12">
          <mxGeometry relative="1" as="geometry">
            <mxPoint x="630" y="180" as="targetPoint" />
            <Array as="points">
              <mxPoint x="240" y="620" />
              <mxPoint x="770" y="620" />
              <mxPoint x="770" y="110" />
            </Array>
          </mxGeometry>
        </mxCell>
        <mxCell id="KQ5LcfLCaLboZUM0fUNv-27" value="SessionManager" style="rounded=0;whiteSpace=wrap;html=1;" vertex="1" parent="1">
          <mxGeometry x="120" y="590" width="120" height="60" as="geometry" />
        </mxCell>
        <mxCell id="KQ5LcfLCaLboZUM0fUNv-29" value="Response (Data || session)" style="shape=flexArrow;endArrow=classic;html=1;rounded=0;exitX=0.75;exitY=1;exitDx=0;exitDy=0;entryX=1;entryY=0;entryDx=0;entryDy=15;entryPerimeter=0;" edge="1" parent="1">
          <mxGeometry width="50" height="50" relative="1" as="geometry">
            <mxPoint x="70" y="630" as="sourcePoint" />
            <mxPoint x="70" y="825" as="targetPoint" />
          </mxGeometry>
        </mxCell>
        <mxCell id="KQ5LcfLCaLboZUM0fUNv-32" value="Match (Session)" style="edgeStyle=orthogonalEdgeStyle;rounded=0;orthogonalLoop=1;jettySize=auto;html=1;exitX=1;exitY=0.75;exitDx=0;exitDy=0;entryX=0.063;entryY=0.7;entryDx=0;entryDy=0;entryPerimeter=0;" edge="1" parent="1" source="KQ5LcfLCaLboZUM0fUNv-31" target="KQ5LcfLCaLboZUM0fUNv-12">
          <mxGeometry relative="1" as="geometry" />
        </mxCell>
        <mxCell id="KQ5LcfLCaLboZUM0fUNv-31" value="SessionValidator" style="rounded=0;whiteSpace=wrap;html=1;" vertex="1" parent="1">
          <mxGeometry x="140" y="100" width="120" height="60" as="geometry" />
        </mxCell>
        <mxCell id="KQ5LcfLCaLboZUM0fUNv-34" value="" style="endArrow=none;dashed=1;html=1;dashPattern=1 3;strokeWidth=2;rounded=0;fillColor=#d5e8d4;strokeColor=#82b366;" edge="1" parent="1">
          <mxGeometry width="50" height="50" relative="1" as="geometry">
            <mxPoint x="260" y="250" as="sourcePoint" />
            <mxPoint x="440" y="210" as="targetPoint" />
          </mxGeometry>
        </mxCell>
      </root>
    </mxGraphModel>
  </diagram>
</mxfile>
